<svg xmlns="http://www.w3.org/2000/svg" xmlns:xlink="http://www.w3.org/1999/xlink" viewBox="0 0 540.74 168.93"><defs><style>.cls-1,.cls-2,.cls-3,.cls-6,.cls-8{fill:none;}.cls-2{stroke:#f06373;}.cls-2,.cls-3,.cls-6,.cls-8{stroke-linecap:round;stroke-linejoin:round;stroke-width:16px;}.cls-3{stroke:#6b99e2;}.cls-13,.cls-4,.cls-9{fill:#fff;}.cls-5{clip-path:url(#clip-path);}.cls-6{stroke:#faf877;}.cls-7{clip-path:url(#clip-path-2);}.cls-8{stroke:#fff;}.cls-9{font-size:78.89px;}.cls-13,.cls-9{font-family:LithosPro-Bold, Lithos Pro;font-weight:700;}.cls-10{letter-spacing:-0.01em;}.cls-11{letter-spacing:0em;}.cls-12{letter-spacing:0em;}.cls-13{font-size:55.55px;}.cls-14{letter-spacing:-0.05em;}.cls-15{letter-spacing:0em;}</style><clipPath id="clip-path" transform="translate(-14.53 -5.47)"><path class="cls-1" d="M23.43,187.3H0V0H23.43Z"/></clipPath><clipPath id="clip-path-2" transform="translate(-14.53 -5.47)"><path class="cls-1" d="M23.43,187.3H146.85V0H23.43Z"/></clipPath></defs><g id="Layer_2" data-name="Layer 2"><g id="forsøg_3_WHITE" data-name="forsøg 3 WHITE"><line class="cls-2" x1="23.98" y1="142.53" x2="120.67" y2="86.25"/><line class="cls-3" x1="123.65" y1="83.28" x2="26.4" y2="27.98"/><path class="cls-4" d="M38.51,31.9,139.73,89.46,38.51,148V31.9m0-16a16,16,0,0,0-16,16V148a16,16,0,0,0,24,13.85l101.22-58.54a16,16,0,0,0-.1-27.76L46.42,18a15.92,15.92,0,0,0-7.91-2.09Z" transform="translate(-14.53 -5.47)"/><g id="Yellow"><g class="cls-5"><polygon class="cls-6" points="139.64 83.82 8 160.93 8 8 139.64 83.82"/></g></g><g id="black_line" data-name="black line"><g class="cls-7"><polygon class="cls-8" points="139.64 83.82 8 160.93 8 8 139.64 83.82"/></g></g></g><g id="_3_FORSØG_WHITE" data-name="3 FORSØG WHITE"><text class="cls-9" transform="translate(159.51 84.09)"><tspan class="cls-10">B</tspan><tspan class="cls-11" x="53.88" y="0">ILL</tspan><tspan class="cls-12" x="176.01" y="0">I</tspan><tspan x="208.75" y="0">G</tspan></text><text class="cls-13" transform="translate(145.09 136.66)"><tspan xml:space="preserve"> ANIM</tspan><tspan class="cls-14" x="194.85" y="0">A</tspan><tspan x="237.74" y="0">T</tspan><tspan class="cls-15" x="274.17" y="0">IO</tspan><tspan x="345.49" y="0">N</tspan></text></g></g></svg>